<svg xmlns="http://www.w3.org/2000/svg" width="24" height="24" viewBox="0 0 24 24" fill="none" stroke="#4A90E2" stroke-width="2" stroke-linecap="round" stroke-linejoin="round" class="lucide lucide-brain">
  <path d="M9.5 2a2.5 2.5 0 1 1 0 5 2.5 2.5 0 0 1 0-5Z"></path>
  <path d="M14.5 2a2.5 2.5 0 1 0 0 5 2.5 2.5 0 0 0 0-5Z"></path>
  <path d="M3 7a2 2 0 0 0-2 2v1c0 1.1.9 2 2 2h18a2 2 0 0 0 2-2V9a2 2 0 0 0-2-2H3Z"></path>
  <path d="M9.5 17a2.5 2.5 0 1 1 0 5 2.5 2.5 0 0 1 0-5Z"></path>
  <path d="M14.5 17a2.5 2.5 0 1 0 0 5 2.5 2.5 0 0 0 0-5Z"></path>
  <path d="M21 12v1a2 2 0 0 1-2 2H5a2 2 0 0 1-2-2v-1"></path>
</svg>